<svg width="200" height="200" fill="none" xmlns="http://www.w3.org/2000/svg"><path d="M0 100v100h65.76l15.55-15.549 15.568-15.569 7.815 7.815 7.815 7.794 1.389-.926c4.29-2.86 8.137-6.929 9.95-10.473 1.813-3.606 2.457-7.614 1.833-11.501-.786-4.753-3.767-10.735-7.996-15.972-.745-.946-12.649-14.743-26.425-30.695L66.224 85.942l.463-.443c.262-.242 5.921-5.277 12.548-11.179l12.084-10.735.484.584c.282.322 11.883 13.757 25.8 29.85 13.898 16.112 25.902 30.07 26.667 31.016 8.419 10.574 13.031 22.236 13.031 32.971 0 4.169-.846 9.265-2.236 13.454-.986 3.021-3.705 8.58-5.599 11.42-3.665 5.579-8.942 11.44-14.622 16.254l-1.007.866H200v-92.064L173.374 77.14c-14.643-16.959-26.667-30.816-26.727-30.816-.061 0-7.09 6.224-15.63 13.797-8.52 7.593-15.609 13.776-15.73 13.756-.363-.08-15.408-17.543-15.327-17.784.06-.162 59.033-52.79 62.074-55.388L162.84 0H0v100zm185.297-88.197c-7.251 6.465-13.193 11.863-13.193 11.964 0 .1 6.123 7.27 13.596 15.911 7.472 8.66 13.756 15.931 13.937 16.173.343.423.363-1.007.363-27.714V0l-.745.02c-.726.02-1.632.786-13.958 11.783z" fill="#FAFAFA"/></svg>