<svg width="38" height="38" viewBox="0 0 38 38" fill="none" xmlns="http://www.w3.org/2000/svg">
<circle cx="19" cy="19" r="19" fill="#FCFCFC"/>
<path d="M19 14.6C18.1298 14.6 17.2791 14.8581 16.5555 15.3415C15.8319 15.825 15.268 16.5122 14.9349 17.3162C14.6019 18.1202 14.5148 19.0049 14.6845 19.8584C14.8543 20.7119 15.2734 21.4959 15.8887 22.1113C16.5041 22.7266 17.2881 23.1457 18.1416 23.3155C18.9951 23.4852 19.8798 23.3981 20.6838 23.0651C21.4878 22.732 22.175 22.1681 22.6585 21.4445C23.1419 20.7209 23.4 19.8702 23.4 19C23.3987 17.8335 22.9347 16.7151 22.1098 15.8902C21.2849 15.0653 20.1665 14.6013 19 14.6ZM19 22.6C18.288 22.6 17.592 22.3889 16.9999 21.9933C16.4079 21.5977 15.9465 21.0355 15.674 20.3777C15.4016 19.7198 15.3303 18.996 15.4692 18.2977C15.6081 17.5993 15.9509 16.9579 16.4544 16.4544C16.9579 15.9509 17.5993 15.6081 18.2977 15.4692C18.996 15.3303 19.7198 15.4016 20.3777 15.674C21.0355 15.9465 21.5977 16.4079 21.9933 16.9999C22.3889 17.592 22.6 18.288 22.6 19C22.6 19.9548 22.2207 20.8705 21.5456 21.5456C20.8705 22.2207 19.9548 22.6 19 22.6ZM23.8 9H14.2C12.8214 9.00159 11.4996 9.54995 10.5248 10.5248C9.54995 11.4996 9.00159 12.8214 9 14.2V23.8C9.00159 25.1786 9.54995 26.5004 10.5248 27.4752C11.4996 28.45 12.8214 28.9984 14.2 29H23.8C25.1786 28.9984 26.5004 28.45 27.4752 27.4752C28.45 26.5004 28.9984 25.1786 29 23.8V14.2C28.9984 12.8214 28.45 11.4996 27.4752 10.5248C26.5004 9.54995 25.1786 9.00159 23.8 9ZM28.2 23.8C28.1987 24.9665 27.7347 26.0849 26.9098 26.9098C26.0849 27.7347 24.9665 28.1987 23.8 28.2H14.2C13.0335 28.1987 11.9151 27.7347 11.0902 26.9098C10.2653 26.0849 9.80132 24.9665 9.8 23.8V14.2C9.80132 13.0335 10.2653 11.9151 11.0902 11.0902C11.9151 10.2653 13.0335 9.80132 14.2 9.8H23.8C24.9665 9.80132 26.0849 10.2653 26.9098 11.0902C27.7347 11.9151 28.1987 13.0335 28.2 14.2V23.8ZM25 13.8C25 13.9582 24.9531 14.1129 24.8652 14.2445C24.7773 14.376 24.6523 14.4786 24.5061 14.5391C24.36 14.5997 24.1991 14.6155 24.0439 14.5846C23.8887 14.5538 23.7462 14.4776 23.6343 14.3657C23.5224 14.2538 23.4462 14.1113 23.4154 13.9561C23.3845 13.8009 23.4003 13.64 23.4609 13.4939C23.5214 13.3477 23.624 13.2227 23.7555 13.1348C23.8871 13.0469 24.0418 13 24.2 13C24.4122 13 24.6157 13.0843 24.7657 13.2343C24.9157 13.3843 25 13.5878 25 13.8Z" fill="#131926"/>
</svg>
