<svg width="38" height="38" fill="none" xmlns="http://www.w3.org/2000/svg"><circle cx="19" cy="19" r="19" fill="#FCFCFC"/><path d="M7 13.201c0-.9.617-1.254 1.375-1.302l3.534.024c.213 0 .403.142.474.355.807 2.604 1.803 4.213 2.989 6.036.07.142.19.213.308.213.095 0 .19-.048.26-.166l.072-.26.024-4.095c0-.592-.285-.687-.949-.781a.53.53 0 01-.427-.52.3.3 0 01.024-.143c.332-1.018 1.375-1.538 2.846-1.538L18.858 11c1.09 0 2.087.473 2.087 1.87v5.373a.5.5 0 00.308.118c.19 0 .427-.118.617-.426 1.233-1.728 2.632-3.787 2.822-4.876 0-.047.023-.07.047-.118.261-.52.925-.876 1.21-.97a.474.474 0 01.213-.048h3.676l.237.024c.356 0 .617.236.735.45.214.33.166.686.19.828v.165c-.356 2.154-2.822 4.569-3.866 6.13-.142.19-.213.356-.213.521 0 .142.071.284.19.427l3.462 4.355c.19.26.285.567.285.828 0 .781-.736 1.23-1.447 1.302l-.403.023h-3.605c-.071 0-.118.024-.19.024-.403 0-.735-.213-.972-.45-.759-.923-1.494-1.87-2.23-2.793-.141-.189-.189-.213-.331-.307-.166.686-.308 1.396-.474 2.106l-.072.403c-.118.426-.427.875-.996.994l-.332.023h-2.324c-4.103 0-7.778-5.822-10.363-13.088A2.081 2.081 0 017 13.2zm14.253 6.13c-.617 0-1.304-.355-1.304-1.017V12.87c0-.64-.285-.876-1.068-.876l-1.351.047c-.76 0-1.186.119-1.542.355.546.26 1.044.616 1.044 1.61v4.166c-.072.828-.76 1.372-1.423 1.372-.45 0-.854-.26-1.091-.686-1.067-1.61-1.969-3.124-2.751-5.302l-.214-.615-3.154-.024c-.427 0-.38.024-.38.237 0 .142.024.331.048.45l.498 1.325c2.585 6.675 5.834 11.053 8.917 11.053h2.372c.332 0 .308-.402.38-.639l.45-2.083c.095-.213.166-.402.332-.568a.846.846 0 01.616-.26c.451 0 .878.355 1.162.686l2.016 2.557c.166.26.309.307.403.307h3.913c.38 0 .712-.118.712-.355a.456.456 0 00-.071-.236l-3.439-4.284c-.284-.355-.403-.71-.403-1.066 0-.378.142-.757.38-1.088.995-1.491 3.13-3.622 3.628-5.373l.071-.308c-.024-.118-.024-.213-.048-.331h-3.723a1.294 1.294 0 00-.569.426l-.142.45c-.546 1.514-2.04 3.597-3.107 5.041a1.674 1.674 0 01-1.162.473z" fill="#131926"/></svg>