<svg width="38" height="38" viewBox="0 0 38 38" fill="none" xmlns="http://www.w3.org/2000/svg">
<circle cx="19" cy="19" r="19" fill="#FCFCFC"/>
<path d="M10.4199 27V10.8H13.9399C15.0733 10.8 15.9533 11 16.5799 11.4C17.2199 11.7867 17.6733 12.34 17.9399 13.06C18.2066 13.78 18.3399 14.6133 18.3399 15.56V22C18.3399 23 18.2066 23.88 17.9399 24.64C17.6733 25.3867 17.2333 25.9667 16.6199 26.38C16.0066 26.7933 15.1599 27 14.0799 27H10.4199ZM11.9399 25.86H13.9799C14.8333 25.86 15.4599 25.6867 15.8599 25.34C16.2599 24.98 16.5133 24.4933 16.6199 23.88C16.7266 23.2533 16.7799 22.5467 16.7799 21.76V15.72C16.7799 14.9067 16.7066 14.2267 16.5599 13.68C16.4266 13.12 16.1533 12.7 15.7399 12.42C15.3399 12.1267 14.7333 11.98 13.9199 11.98H11.9399V25.86Z" fill="#131926"/>
<path d="M20.4096 27V25.92L24.7696 19.24C25.0896 18.7467 25.3896 18.2733 25.6696 17.82C25.9496 17.3533 26.1763 16.8667 26.3496 16.36C26.5363 15.8533 26.6296 15.28 26.6296 14.64C26.6296 13.7733 26.4496 13.0933 26.0896 12.6C25.7429 12.1067 25.2029 11.86 24.4696 11.86C23.8163 11.86 23.3096 12.0067 22.9496 12.3C22.5896 12.5933 22.3363 13 22.1896 13.52C22.0563 14.0267 21.9896 14.6 21.9896 15.24V15.6H20.5296V15.2C20.5296 14.2 20.6629 13.3667 20.9296 12.7C21.1963 12.02 21.6096 11.5067 22.1696 11.16C22.7429 10.8133 23.4896 10.64 24.4096 10.64C25.6363 10.64 26.5563 11.0067 27.1696 11.74C27.7829 12.46 28.0896 13.4667 28.0896 14.76C28.0896 15.4133 27.9963 16.0133 27.8096 16.56C27.6229 17.1067 27.3829 17.6333 27.0896 18.14C26.7963 18.6333 26.4896 19.1333 26.1696 19.64L22.1296 25.76H27.7496V27H20.4096Z" fill="#131926"/>
</svg>
