<svg width="59" height="59" fill="none" xmlns="http://www.w3.org/2000/svg"><circle cx="29.5" cy="29.5" r="29.5" fill="#FAFAFA"/><path d="M18.611 32.596l9.68-9.16c.163-.159.34-.271.53-.338.19-.066.393-.099.61-.098.218 0 .422.033.612.098.19.066.367.178.53.337l9.857 9.161c.38.37.57.831.57 1.385s-.204 1.03-.611 1.425c-.408.396-.883.594-1.426.594-.543 0-1.018-.198-1.426-.594l-8.105-7.458-7.97 7.458c-.38.37-.848.554-1.405.554a2 2 0 01-1.446-.593c-.407-.396-.611-.858-.611-1.386 0-.527.204-.99.611-1.385z" fill="#131926"/></svg>