<svg width="38" height="38" fill="none" xmlns="http://www.w3.org/2000/svg"><circle cx="19" cy="19" r="19" fill="#FCFCFC"/><path d="M22.071 18.198l-4.035-2.244a1.603 1.603 0 00-1.557.002 1.533 1.533 0 00-.57.55 1.467 1.467 0 00-.209.752v4.486a1.478 1.478 0 00.777 1.3 1.592 1.592 0 001.56.003l4.034-2.244a1.53 1.53 0 00.57-.55 1.462 1.462 0 000-1.504 1.53 1.53 0 00-.57-.55zm-.55 1.681l-4.032 2.245a.468.468 0 01-.63-.16.421.421 0 01-.059-.222v-4.484c0-.077.02-.153.06-.22a.44.44 0 01.168-.161.454.454 0 01.46 0l4.033 2.245c.07.038.128.093.168.16a.424.424 0 01-.168.597zM26.7 11H11.3a3.36 3.36 0 00-2.332.934A3.137 3.137 0 008 14.188v10.624c0 .846.349 1.656.968 2.253A3.363 3.363 0 0011.3 28h15.4a3.36 3.36 0 002.332-.934A3.137 3.137 0 0030 24.813V14.188c0-.846-.349-1.656-.968-2.254A3.363 3.363 0 0026.7 11zm2.2 13.813c0 .563-.233 1.103-.645 1.501a2.243 2.243 0 01-1.555.623H11.3a2.243 2.243 0 01-1.555-.623 2.092 2.092 0 01-.645-1.502V14.188c0-.563.233-1.103.645-1.501a2.243 2.243 0 011.555-.623h15.4c.583 0 1.142.224 1.555.623.412.398.644.938.645 1.502v10.624z" fill="#131926"/></svg>