<svg width="24" height="24" viewBox="0 0 24 24" fill="none" xmlns="http://www.w3.org/2000/svg">
<path d="M15.1498 13.6918H14.3819L14.1098 13.4294C15.0952 12.2864 15.6369 10.8271 15.6358 9.3179C15.6358 8.06834 15.2653 6.84684 14.571 5.80786C13.8768 4.76889 12.8901 3.95911 11.7357 3.48092C10.5812 3.00274 9.31089 2.87762 8.08534 3.1214C6.85979 3.36518 5.73404 3.9669 4.85047 4.85047C3.9669 5.73404 3.36518 6.85979 3.1214 8.08534C2.87762 9.31089 3.00274 10.5812 3.48092 11.7357C3.95911 12.8901 4.76889 13.8768 5.80786 14.571C6.84684 15.2653 8.06834 15.6358 9.3179 15.6358C10.8828 15.6358 12.3213 15.0623 13.4294 14.1098L13.6918 14.3819V15.1498L18.5517 20L20 18.5517L15.1498 13.6918ZM9.3179 13.6918C6.89766 13.6918 4.94397 11.7381 4.94397 9.3179C4.94397 6.89766 6.89766 4.94397 9.3179 4.94397C11.7381 4.94397 13.6918 6.89766 13.6918 9.3179C13.6918 11.7381 11.7381 13.6918 9.3179 13.6918Z" fill="#ADAEB5"/>
</svg>
