<svg width="200" height="200" viewBox="0 0 200 200" fill="none" xmlns="http://www.w3.org/2000/svg">
<g id="&#208;&#155;&#208;&#190;&#208;&#179;&#208;&#190;&#209;&#130;&#208;&#184;&#208;&#191;">
<path id="Vector" d="M0 100V200H32.8701H65.7603L81.3092 184.451L96.8781 168.882L104.693 176.697L112.508 184.491L113.897 183.565C118.187 180.705 122.034 176.636 123.847 173.092C125.66 169.486 126.304 165.478 125.68 161.591C124.894 156.838 121.913 150.856 117.684 145.619C116.939 144.673 105.035 130.876 91.2588 114.924L66.2236 85.9416L66.6868 85.4985C66.9486 85.2568 72.6083 80.2216 79.2346 74.3202L91.3192 63.5851L91.8026 64.1692C92.0846 64.4914 103.686 77.9255 117.603 94.0181C131.501 110.131 143.505 124.089 144.27 125.035C152.689 135.609 157.301 147.271 157.301 158.006C157.301 162.175 156.455 167.271 155.065 171.46C154.079 174.481 151.36 180.04 149.466 182.88C145.801 188.459 140.524 194.32 134.844 199.134L133.837 200H166.928H200V153.978V107.936L173.374 77.14C158.731 60.1813 146.707 46.3243 146.647 46.3243C146.586 46.3243 139.557 52.5478 131.017 60.1208C122.497 67.714 115.408 73.8973 115.287 73.8771C114.924 73.7966 99.8792 56.3343 99.9597 56.0926C100.02 55.9315 158.993 3.30312 162.034 0.704935L162.84 1.86265e-07H81.43H0V100Z" fill="#FAFAFA"/>
<path id="Vector_2" d="M185.297 11.8029C178.046 18.2681 172.104 23.6659 172.104 23.7666C172.104 23.8673 178.227 31.0375 185.7 39.678C193.172 48.3386 199.456 55.6095 199.637 55.8512C199.98 56.2742 200 54.8442 200 28.1372V0.000261396L199.255 0.0204024C198.529 0.0405434 197.623 0.805901 185.297 11.8029Z" fill="#FAFAFA"/>
</g>
</svg>
