<svg width="59" height="59" viewBox="0 0 59 59" fill="none" xmlns="http://www.w3.org/2000/svg">
<circle cx="29.5" cy="29.5" r="29.5" fill="#FAFAFA"/>
<path d="M18.6111 32.5961L28.2911 23.4354C28.454 23.2771 28.6306 23.1647 28.8207 23.0982C29.0108 23.0317 29.2145 22.999 29.4318 23C29.649 23 29.8527 23.0327 30.0428 23.0982C30.2329 23.1636 30.4095 23.276 30.5724 23.4354L40.4297 32.5961C40.8099 32.9655 41 33.4273 41 33.9814C41 34.5355 40.7963 35.0105 40.3889 35.4063C39.9815 35.8021 39.5063 36 38.9631 36C38.4199 36 37.9446 35.8021 37.5373 35.4063L29.4318 27.9476L21.4627 35.4063C21.0825 35.7757 20.6138 35.9604 20.0565 35.9604C19.4992 35.9604 19.0174 35.7625 18.6111 35.3667C18.2037 34.9709 18 34.5091 18 33.9814C18 33.4537 18.2037 32.9919 18.6111 32.5961Z" fill="#131926"/>
</svg>
