<svg width="38" height="38" viewBox="0 0 38 38" fill="none" xmlns="http://www.w3.org/2000/svg">
<circle cx="19" cy="19" r="19" fill="#FCFCFC"/>
<path d="M7 13.2012C7 12.3018 7.6166 11.9467 8.37549 11.8994L11.9091 11.9231C12.1225 11.9231 12.3123 12.0651 12.3834 12.2781C13.1897 14.8817 14.1858 16.4911 15.3715 18.3136C15.4427 18.4556 15.5613 18.5266 15.6798 18.5266C15.7747 18.5266 15.8696 18.4793 15.9407 18.3609L16.0119 18.1006L16.0356 14.0059C16.0356 13.4142 15.751 13.3195 15.087 13.2249C14.8261 13.1775 14.6601 12.9408 14.6601 12.7041C14.6601 12.6568 14.6601 12.6095 14.6838 12.5621C15.0158 11.5444 16.0593 11.0237 17.5296 11.0237L18.8577 11C19.9486 11 20.9447 11.4734 20.9447 12.8698V18.2426C21.0395 18.3136 21.1344 18.3609 21.253 18.3609C21.4427 18.3609 21.6798 18.2426 21.8696 17.9349C23.1028 16.2071 24.502 14.1479 24.6917 13.0592C24.6917 13.0118 24.7154 12.9882 24.7391 12.9408C25 12.4201 25.664 12.0651 25.9486 11.9704C25.996 11.9467 26.0672 11.9231 26.1621 11.9231H29.8379L30.0751 11.9467C30.4308 11.9467 30.6917 12.1834 30.8103 12.3964C31.0237 12.7278 30.9763 13.0828 31 13.2249V13.3905C30.6443 15.5444 28.1779 17.9586 27.1344 19.5207C26.9921 19.7101 26.9209 19.8757 26.9209 20.0414C26.9209 20.1834 26.9921 20.3254 27.1107 20.4675L30.5731 24.8225C30.7628 25.0828 30.8577 25.3905 30.8577 25.6509C30.8577 26.432 30.1225 26.8817 29.4111 26.9527L29.0079 26.9763H25.4032C25.332 26.9763 25.2846 27 25.2134 27C24.8103 27 24.4783 26.787 24.2411 26.5503C23.4822 25.6272 22.747 24.6805 22.0119 23.7574C21.8696 23.568 21.8221 23.5444 21.6798 23.4497C21.5138 24.1361 21.3715 24.8462 21.2055 25.5562L21.1344 25.9586C21.0158 26.3846 20.7075 26.8343 20.1383 26.9527L19.8063 26.9763H17.4822C13.3794 26.9763 9.70356 21.1538 7.11858 13.8876C7.04743 13.6982 7 13.4379 7 13.2012ZM21.253 19.3314C20.6364 19.3314 19.9486 18.9763 19.9486 18.3136V12.8698C19.9486 12.2308 19.664 11.9941 18.8814 11.9941L17.5296 12.0414C16.7708 12.0414 16.3439 12.1598 15.9881 12.3964C16.5336 12.6568 17.0316 13.0118 17.0316 14.0059V18.1716C16.9605 19 16.2727 19.5444 15.6087 19.5444C15.1581 19.5444 14.7549 19.284 14.5178 18.858C13.4506 17.2485 12.5494 15.7337 11.7668 13.5562L11.5534 12.9408L8.39921 12.9172C7.97233 12.9172 8.01976 12.9408 8.01976 13.1538C8.01976 13.2959 8.04348 13.4852 8.06719 13.6036L8.56522 14.929C11.1502 21.6035 14.3992 25.9822 17.4822 25.9822H19.8538C20.1858 25.9822 20.1621 25.5799 20.2332 25.3432L20.6838 23.2604C20.7787 23.0473 20.8498 22.858 21.0158 22.6923C21.2055 22.503 21.419 22.432 21.6324 22.432C22.083 22.432 22.5099 22.787 22.7945 23.1183L24.8103 25.6746C24.9763 25.9349 25.1186 25.9822 25.2134 25.9822H29.1265C29.5059 25.9822 29.8379 25.8639 29.8379 25.6272C29.8379 25.5562 29.8142 25.4615 29.7668 25.3905L26.3281 21.1065C26.0435 20.7515 25.9249 20.3965 25.9249 20.0414C25.9249 19.6627 26.0672 19.284 26.3043 18.9527C27.3004 17.4615 29.4348 15.3314 29.9328 13.5799L30.004 13.2722C29.9802 13.1538 29.9802 13.0592 29.9565 12.9408H26.2332C25.996 13.0355 25.8063 13.1775 25.664 13.3669L25.5217 13.8166C24.9763 15.3314 23.4822 17.4142 22.415 18.858C22.0593 19.1893 21.6561 19.3314 21.253 19.3314Z" fill="#131926"/>
</svg>
