<svg width="38" height="38" viewBox="0 0 38 38" fill="none" xmlns="http://www.w3.org/2000/svg">
<circle cx="19" cy="19" r="19" fill="#FCFCFC"/>
<path d="M22.0712 18.1984L18.0364 15.9544C17.7995 15.8227 17.5309 15.7535 17.2576 15.7536C16.9842 15.7538 16.7157 15.8235 16.479 15.9555C16.2423 16.0876 16.0457 16.2775 15.909 16.5061C15.7723 16.7348 15.7002 16.9941 15.7 17.2581V21.744C15.6967 22.2816 15.9937 22.7789 16.4766 23.0445C16.7134 23.1781 16.9826 23.2487 17.2568 23.249C17.531 23.2494 17.8004 23.1796 18.0375 23.0466L22.0712 20.8026C22.3082 20.671 22.505 20.4814 22.6419 20.2529C22.7788 20.0244 22.8508 19.7651 22.8508 19.5011C22.8508 19.2371 22.7788 18.9777 22.6419 18.7492C22.505 18.5207 22.3082 18.3311 22.0712 18.1995V18.1984ZM21.5212 19.8793L17.4886 22.1244C17.4187 22.164 17.3392 22.1849 17.2582 22.1849C17.1771 22.1849 17.0976 22.164 17.0277 22.1244C16.9578 22.0861 16.8998 22.0305 16.8597 21.9632C16.8196 21.8959 16.799 21.8195 16.8 21.7419V17.2581C16.7992 17.1807 16.8199 17.1045 16.86 17.0374C16.9 16.9703 16.9579 16.9148 17.0277 16.8767C17.097 16.836 17.1765 16.8144 17.2576 16.8144C17.3387 16.8144 17.4182 16.836 17.4875 16.8767L21.5212 19.1217C21.5908 19.1597 21.6486 19.2148 21.6889 19.2815C21.7292 19.3481 21.7504 19.4239 21.7504 19.5011C21.7504 19.5782 21.7292 19.654 21.6889 19.7207C21.6486 19.7873 21.5908 19.8414 21.5212 19.8793ZM26.7 11H11.3C10.4251 11.0008 9.58619 11.3369 8.96751 11.9345C8.34883 12.5321 8.00087 13.3424 8 14.1875V24.8125C8.00087 25.6576 8.34883 26.4679 8.96751 27.0655C9.58619 27.6631 10.4251 27.9992 11.3 28H26.7C27.5749 27.9992 28.4138 27.6631 29.0325 27.0655C29.6512 26.4679 29.9991 25.6576 30 24.8125V14.1875C29.9991 13.3424 29.6512 12.5321 29.0325 11.9345C28.4138 11.3369 27.5749 11.0008 26.7 11ZM28.9 24.8125C28.8991 25.3758 28.6671 25.9158 28.2547 26.3142C27.8423 26.7125 27.2832 26.9367 26.7 26.9375H11.3C10.7168 26.9367 10.1577 26.7125 9.74533 26.3142C9.33294 25.9158 9.10087 25.3758 9.1 24.8125V14.1875C9.10087 13.6242 9.33294 13.0842 9.74533 12.6858C10.1577 12.2875 10.7168 12.0633 11.3 12.0625H26.7C27.2832 12.0633 27.8423 12.2875 28.2547 12.6858C28.6671 13.0842 28.8991 13.6242 28.9 14.1875V24.8125Z" fill="#131926"/>
</svg>
